<svg xmlns="http://www.w3.org/2000/svg" width="88" height="88" viewBox="0 0 88 88"><defs><filter id="a" width="88" height="88" x="0" y="0" filterUnits="userSpaceOnUse"><feOffset dy="1"/><feGaussianBlur result="b" stdDeviation="4"/><feFlood flood-opacity=".16"/><feComposite in2="b" operator="in"/><feComposite in="SourceGraphic"/></filter></defs><path fill="#fff" d="M25 0h14a25 25 0 0 1 25 25v14a25 25 0 0 1-25 25H25A25 25 0 0 1 0 39V25A25 25 0 0 1 25 0z" filter="url(#a)" transform="translate(12 11)"/><path fill="#d1d0d3" d="M55.534 59.704l-.149-.26c-.228-.393-.518-.9-.821-1.475q-.5.016-1.044.016a35.529 35.529 0 0 1-20.203-6.328 27.029 27.029 0 0 1-5.274 7.155 1.3 1.3 0 1 1-1.815-1.858c5.928-5.794 7.076-12.241 8-17.421.212-1.2.414-2.328.661-3.358a14.262 14.262 0 0 1 7.545-9.91c2.652-7.654 10.681-9.183 11.029-9.246a1.312 1.312 0 0 1 1.524 1.279v6.818c2.309.31 5.871 1.029 6.956 2.579.259.37 4.618 6.031 5.292 7.287l.026.044a4.279 4.279 0 0 1 .522 1.425c.013.089.012.18.02.269a20.077 20.077 0 0 1-1.093 6.095 9.863 9.863 0 0 1-7.973 6.28c-1.653.259-2.705.837-3.126 1.716a2.483 2.483 0 0 0-.188.574c0 .009 0 .018-.006.028-.424 2.156 1.463 5.428 2.217 6.732l.156.27a20.113 20.113 0 0 1 2.291 8.014q-1.226.861-2.535 1.606a18.127 18.127 0 0 0-2.012-8.331zM34.4 49.248a32.929 32.929 0 0 0 19.017 6.14 10.543 10.543 0 0 1-.642-3.03c-9.293-.519-14.733-4.136-17.268-6.407a33.128 33.128 0 0 1-1.107 3.297zm10.327-21.649a1.3 1.3 0 0 1-.823.859c-.194.068-4.939 1.824-6.494 8.322-.229.956-.423 2.05-.63 3.208-.168.946-.348 1.955-.568 3.011a17.366 17.366 0 0 0 3.851 3.085 27.752 27.752 0 0 0 13.167 3.695c.014-.029.024-.058.038-.087.812-1.7 2.516-2.763 5.068-3.163 4.874-.764 6.366-4.634 6.751-7.8a2.449 2.449 0 0 1-.631-3.341c-.92-1.4-2.438-3.339-3.226-4.345-.624-.8-1.116-1.427-1.414-1.852-.443-.564-3.425-1.338-6.256-1.621a1.3 1.3 0 0 1-1.17-1.292v-6.271a11.785 11.785 0 0 0-7.663 7.592zM11.211 47.318a19.35 19.35 0 0 1 1.5-1.414 21.986 21.986 0 0 1 9.027-4.531 1.5 1.5 0 1 0-.542-2.95 24.8 24.8 0 0 0-10.228 5.028q-.159.132-.32.27-.149-1.527-.15-3.092v-.1a27.628 27.628 0 0 1 10.219-4.661 4.1 4.1 0 1 1 1.511 8.054 19.8 19.8 0 0 0-7.84 3.963 15.873 15.873 0 0 0-2.36 2.473 31.211 31.211 0 0 1-.817-3.04zm44.343-13.807a1.887 1.887 0 1 1 1.887 1.887 1.889 1.889 0 0 1-1.887-1.887z"/><path fill="none" stroke="#47bf7a" stroke-linecap="round" stroke-linejoin="round" stroke-width="3" d="M33.909 45.132l5.059 4.949L49.253 35"/></svg>