<svg xmlns="http://www.w3.org/2000/svg" width="139" height="139" viewBox="0 0 139 139"><defs><filter id="a" width="139" height="139" x="0" y="0" filterUnits="userSpaceOnUse"><feOffset dy="1"/><feGaussianBlur result="b" stdDeviation="4"/><feFlood flood-opacity=".16"/><feComposite in2="b" operator="in"/><feComposite in="SourceGraphic"/></filter></defs><rect width="115" height="115" fill="#fff" filter="url(#a)" rx="25" transform="translate(12 11)"/><path fill="#d1d0d3" d="M95.656 99.484l-.268-.466a67.32 67.32 0 0 1-1.47-2.642q-.892.029-1.87.029a63.632 63.632 0 0 1-36.186-11.333 48.409 48.409 0 0 1-9.446 12.815 2.326 2.326 0 1 1-3.251-3.327c10.618-10.377 12.673-21.923 14.325-31.2.38-2.144.741-4.17 1.183-6.014C61.465 45.665 69.242 40.983 72.185 39.6c4.751-13.713 19.131-16.451 19.754-16.564a2.35 2.35 0 0 1 2.739 2.289v12.21c4.136.556 10.514 1.842 12.458 4.62.464.662 8.271 10.8 9.478 13.052l.047.079a7.664 7.664 0 0 1 .935 2.552c.023.16.021.322.035.482a35.957 35.957 0 0 1-1.957 10.916 17.664 17.664 0 0 1-14.28 11.248c-2.961.464-4.845 1.5-5.6 3.074a4.446 4.446 0 0 0-.337 1.028c0 .016-.008.032-.011.05-.759 3.862 2.621 9.721 3.97 12.057l.279.484a36.023 36.023 0 0 1 4.1 14.348q-2.2 1.542-4.54 2.876a32.466 32.466 0 0 0-3.599-14.917zm-37.85-18.727a58.975 58.975 0 0 0 34.053 11 18.883 18.883 0 0 1-1.149-5.427c-16.645-.93-26.387-7.408-30.928-11.475a59.333 59.333 0 0 1-1.976 5.902zM76.3 41.984a2.33 2.33 0 0 1-1.475 1.538c-.348.123-8.846 3.267-11.63 14.905-.409 1.712-.758 3.672-1.128 5.746-.3 1.694-.624 3.5-1.017 5.392a31.1 31.1 0 0 0 6.9 5.526c4.56 2.76 12.286 6.075 23.581 6.617.024-.052.044-.1.068-.156 1.454-3.043 4.507-4.949 9.077-5.666 8.728-1.369 11.4-8.3 12.091-13.978a4.385 4.385 0 0 1-1.13-5.983c-1.647-2.5-4.367-5.98-5.777-7.782-1.117-1.428-2-2.555-2.532-3.317-.793-1.011-6.135-2.4-11.2-2.9a2.325 2.325 0 0 1-2.1-2.315V28.386c-3.991 1.401-11.177 5.042-13.728 13.598zM16.274 77.3a34.657 34.657 0 0 1 2.688-2.532 39.377 39.377 0 0 1 16.167-8.116 2.686 2.686 0 1 0-.97-5.284 44.417 44.417 0 0 0-18.318 9.006q-.286.237-.573.484Q15 68.124 15 65.321v-.187a49.481 49.481 0 0 1 18.3-8.34 7.338 7.338 0 0 1 2.706 14.425 35.455 35.455 0 0 0-14.041 7.1 28.429 28.429 0 0 0-4.227 4.43 55.9 55.9 0 0 1-1.464-5.449zm79.418-24.728a3.38 3.38 0 1 1 3.38 3.38 3.384 3.384 0 0 1-3.38-3.38z"/><path fill="none" stroke="#f47061" stroke-linecap="round" stroke-linejoin="round" stroke-width="3" d="M53 92.081l32.285-47.082m0 47.082L53 44.999"/></svg>