<svg xmlns="http://www.w3.org/2000/svg" width="88" height="88" viewBox="0 0 88 88"><defs><filter id="a" width="88" height="88" x="0" y="0" filterUnits="userSpaceOnUse"><feOffset dy="1"/><feGaussianBlur result="b" stdDeviation="4"/><feFlood flood-opacity=".16"/><feComposite in2="b" operator="in"/><feComposite in="SourceGraphic"/></filter></defs><path fill="#fff" d="M25 0h14a25 25 0 0 1 25 25v14a25 25 0 0 1-25 25H25A25 25 0 0 1 0 39V25A25 25 0 0 1 25 0z" filter="url(#a)" transform="translate(12 11)"/><g fill="#e4e4e4"><path d="M67.218 48.967a20.479 20.479 0 0 0 2.644-7.918v-.027a20.763 20.763 0 0 0 .14-2.4 20.544 20.544 0 0 0-5.415-13.911 1.056 1.056 0 0 0-.188-.2 20.687 20.687 0 0 0-7.944-5.257 1.039 1.039 0 0 0-.17-.06 20.621 20.621 0 0 0-14.559.281 1.055 1.055 0 0 0-.186.076 20.714 20.714 0 0 0-7.552 5.358 1.089 1.089 0 0 0-.178.2 20.579 20.579 0 0 0-4.928 15.8v.028a20.458 20.458 0 0 0 .848 3.962L18.654 55.983a1.055 1.055 0 1 0 1.491 1.492l10.414-10.414a20.567 20.567 0 0 0 .964 1.878 1.042 1.042 0 0 0 .12.2 20.72 20.72 0 0 0 11.8 9.234l-7.425 7.432a1.055 1.055 0 1 0 1.487 1.495l8.351-8.352a20.618 20.618 0 0 0 21.225-9.756 1.05 1.05 0 0 0 .137-.225zm-9.126.042l-3.752-5.774 2-6.141 4.742-1.065 1.234-.277 5.392 5.537a18.372 18.372 0 0 1-2.146 6.311zm-13.674-5.775l-3.75 5.772-7.5-1.439a18.38 18.38 0 0 1-2.126-6.367l5.4-5.446 5.982 1.343 1.329 4.092zM34.025 28.285l.951 5.946-4.111 4.147a18.407 18.407 0 0 1 3.16-10.093zm12.318 14.047L44.48 36.6l4.877-3.543 4.877 3.543-1.863 5.733zm21.546-3.872l-4.132-4.243.73-6.28a18.413 18.413 0 0 1 3.402 10.524zM62.624 25.7l-.934 8.025-2.269.509-3.674.825-5.3-3.848V25.5l5.724-4.1a18.582 18.582 0 0 1 6.453 4.3zm-8.965-5.09l-4.327 3.1-4.823-2.95a18.539 18.539 0 0 1 9.15-.15zm-11.71 1.057l6.354 3.888v5.66l-3.736 2.714-1.56 1.134-5.975-1.341-1.229-7.675a18.6 18.6 0 0 1 6.146-4.38zm-7.147 28.361l5.691 1.093 2.9 5.024a18.59 18.59 0 0 1-8.591-6.117zm11.444 6.844l-3.844-6.663 3.747-5.767h6.455l3.747 5.767-3.843 6.662a18.565 18.565 0 0 1-6.262 0zm9.117-.728l2.9-5.022 5.669-1.065a18.586 18.586 0 0 1-8.569 6.087zm0 0"/><path d="M30.525 55.983l-8.848 8.935c-.032.047 1.4 1.388 1.377 1.4l1.912-1.828 7.052-7.02a1.055 1.055 0 1 0-1.492-1.492zm2.995 12.749a1.055 1.055 0 1 0 .746.309 1.062 1.062 0 0 0-.746-.309zm0 0"/></g><path fill="none" stroke="#47bf7a" stroke-linecap="round" stroke-linejoin="round" stroke-width="3" d="M36.909 45.7l5.059 4.949 10.285-15.081"/></svg>