<svg xmlns="http://www.w3.org/2000/svg" width="174.53" height="184.73" viewBox="0 0 174.53 184.73"><path fill="#141414" d="M174.294 53.307a6.35 6.35 0 0 0-3.165-3.832l-5.716-3.065a7.207 7.207 0 0 0-5.158-.63 6.7 6.7 0 0 0-4.126 2.94l-3.411 5.487a7.223 7.223 0 0 0-4.637-.382 6.712 6.712 0 0 0-4.126 2.941l-.215.345V33.735c0-7.461-6.534-13.53-14.568-13.53H107.92a6.663 6.663 0 0 0-6.721-5.412h-9.906V8.118C91.293 3.642 87.371 0 82.552 0H61.186c-4.82 0-8.741 3.642-8.741 8.118v6.675h-9.907a6.662 6.662 0 0 0-6.721 5.407H14.568C6.534 20.2 0 26.274 0 33.735V171.2c0 7.461 6.534 13.53 14.568 13.53h90.922a2.713 2.713 0 1 0 0-5.412H14.568c-4.82 0-8.741-3.642-8.741-8.118V33.735c0-4.476 3.921-8.118 8.741-8.118H35.74v13.169a6.578 6.578 0 0 0 6.8 6.314h58.66a6.578 6.578 0 0 0 6.8-6.314v-2.525h18.45v48.66L96.8 132.613a9.307 9.307 0 0 0-1.4 5.666l1.3 16.9a4.484 4.484 0 0 0 2.378 3.563 5.183 5.183 0 0 0 4.507.206l16.75-7.215a10.378 10.378 0 0 0 4.756-4.038l1.361-2.189v23.165H17.287V36.261h7.77a2.713 2.713 0 1 0 0-5.412h-8.741a4.7 4.7 0 0 0-4.856 4.51v134.218a4.7 4.7 0 0 0 4.856 4.51h111.105a4.7 4.7 0 0 0 4.856-4.51v-33.442l5.633-9.061V171.2c0 4.476-3.921 8.118-8.741 8.118h-10.083a2.713 2.713 0 1 0 0 5.412h10.084c8.032 0 14.568-6.07 14.568-13.53v-53.5l24.58-39.542 3.883-6.246a5.879 5.879 0 0 0 .678-4.789 6.288 6.288 0 0 0-2.675-3.539l3.411-5.487a5.882 5.882 0 0 0 .679-4.79zm-13.12-1.882a1.013 1.013 0 0 1 1.325-.33l5.716 3.065a.911.911 0 0 1 .452.547.845.845 0 0 1-.1.684l-3.4 5.464-7.395-3.965zM149 59.472a.962.962 0 0 1 .589-.419 1.016 1.016 0 0 1 .734.089l16.477 8.835a.9.9 0 0 1 .452.547.836.836 0 0 1-.1.682l-2.426 3.9-18.154-9.735zM58.272 8.118a2.818 2.818 0 0 1 2.914-2.706h21.366a2.818 2.818 0 0 1 2.914 2.706v6.675H58.272zm43.9 30.668a.939.939 0 0 1-.971.9H42.538a.939.939 0 0 1-.971-.9V21.107a.939.939 0 0 1 .971-.9H101.2a.939.939 0 0 1 .971.9zm25.251-7.938H108v-5.231h21.172c4.82 0 8.741 3.642 8.741 8.118v32.751l-5.633 9.061V35.359a4.7 4.7 0 0 0-4.859-4.51zm16.237 37.214l18.154 9.738-35.719 57.46-18.155-9.735zm-23.617 76.931a4.715 4.715 0 0 1-2.161 1.834l-15.472 6.664-1.2-15.6a4.223 4.223 0 0 1 .639-2.574l3.176-5.112 18.155 9.735zm0 0"/><path fill="#141414" d="M27.223 151.884a4.042 4.042 0 0 0 5.7-.339l8.014-9.022 6.2 7.4a6.735 6.735 0 0 0 10.117.238l7.46-8.1 8.269 9.359a4.042 4.042 0 0 0 6.058-5.351l-9.258-10.479a6.743 6.743 0 0 0-4.978-2.276h-.069a6.745 6.745 0 0 0-4.955 2.172l-7.433 8.071-6.222-7.42a6.739 6.739 0 0 0-5.067-2.408 6.669 6.669 0 0 0-5.13 2.263l-9.043 10.186a4.041 4.041 0 0 0 .337 5.706zm112.162-91.685a4.041 4.041 0 0 0-4.042-4.042H20.561a4.042 4.042 0 1 0 0 8.083h114.782a4.041 4.041 0 0 0 4.042-4.041zM28.665 78.458h47.961a4.042 4.042 0 1 0 0-8.083H28.665a4.042 4.042 0 1 0 0 8.083zm0 0"/><path fill="#141414" d="M99.302 74.417a4.041 4.041 0 0 0-4.041-4.042H76.4a4.042 4.042 0 1 0 0 8.083h18.861a4.041 4.041 0 0 0 4.041-4.041zM29.324 92.675h38.8a4.042 4.042 0 1 0 0-8.083h-38.8a4.042 4.042 0 0 0 0 8.083zm0 0"/><path fill="#141414" d="M87.403 84.592H69.081a4.042 4.042 0 0 0 0 8.083h18.322a4.042 4.042 0 0 0 0-8.083zm-57.379 22.3h28.022a4.042 4.042 0 0 0 0-8.083H30.024a4.042 4.042 0 0 0 0 8.083zm0 0"/><path fill="#141414" d="M93.438 102.851a4.041 4.041 0 0 0-4.041-4.042h-29.1a4.042 4.042 0 0 0 0 8.083h29.1a4.041 4.041 0 0 0 4.041-4.041zm-63.414 18.258h28.022a4.042 4.042 0 0 0 0-8.083H30.024a4.042 4.042 0 0 0 0 8.083zm0 0"/></svg>