<svg xmlns="http://www.w3.org/2000/svg" width="88" height="88" viewBox="0 0 88 88"><defs><filter id="a" width="88" height="88" x="0" y="0" filterUnits="userSpaceOnUse"><feOffset dy="1"/><feGaussianBlur result="b" stdDeviation="4"/><feFlood flood-opacity=".16"/><feComposite in2="b" operator="in"/><feComposite in="SourceGraphic"/></filter></defs><rect width="64" height="64" fill="#fff" filter="url(#a)" rx="25" transform="translate(12 11)"/><path fill="#d1d0d3" d="M43.965 40.737a2.273 2.273 0 0 0-1.968-1.117h-8.124l2.367-18.464a1.537 1.537 0 0 0-2.879-.924L20.653 43.843a2.292 2.292 0 0 0 2.018 3.378h8.124l-2.372 18.464a1.519 1.519 0 0 0 1.055 1.659 1.578 1.578 0 0 0 .483.076 1.517 1.517 0 0 0 1.341-.811l12.714-23.611a2.273 2.273 0 0 0-.051-2.261zm-1.329 1.519l-12.64 23.473 2.46-19.191a.783.783 0 0 0-.777-.883h-9.014a.726.726 0 0 1-.639-1.07l12.64-23.473-2.46 19.191a.783.783 0 0 0 .777.883h9.014a.726.726 0 0 1 .639 1.07z"/><path fill="#ffc076" d="M57.101 31.631a1.515 1.515 0 0 0-1.312-.744h-5.416l1.58-12.309a1.025 1.025 0 0 0-1.921-.617l-8.479 15.741a1.528 1.528 0 0 0 1.345 2.252h5.416l-1.578 12.309a1.013 1.013 0 0 0 .7 1.106 1.052 1.052 0 0 0 .322.051 1.011 1.011 0 0 0 .894-.541l8.476-15.741a1.515 1.515 0 0 0-.027-1.507zm-.886 1.013l-8.427 15.649 1.64-12.794a.522.522 0 0 0-.518-.588h-6.009a.484.484 0 0 1-.426-.713l8.427-15.649-1.64 12.794a.522.522 0 0 0 .518.588h6.009a.484.484 0 0 1 .426.713zm8.021-8.118a.758.758 0 0 0-.656-.372h-2.708l.789-6.155a.512.512 0 0 0-.96-.308l-4.238 7.87a.764.764 0 0 0 .673 1.126h2.708l-.791 6.155a.506.506 0 0 0 .352.553.526.526 0 0 0 .161.025.506.506 0 0 0 .447-.27l4.238-7.87a.758.758 0 0 0-.015-.754zm-.443.506l-4.213 7.824.82-6.4a.261.261 0 0 0-.259-.294h-3a.242.242 0 0 1-.213-.357l4.209-7.82-.82 6.4a.261.261 0 0 0 .259.294h3a.242.242 0 0 1 .213.357z"/><path fill="#ffc076" d="M42.039 33.53l9.038-16.109-1.671 14.111h7.061l.688 1.381-9.079 16.188-.46-1.949L49.407 35.2H42.04zm14.637-7.943l4.5-7.939-.833 6.955h3.517l.343.681-4.523 7.978-.229-.96.892-5.891h-3.67z"/></svg>