<svg xmlns="http://www.w3.org/2000/svg" xmlns:xlink="http://www.w3.org/1999/xlink" width="56" height="56" viewBox="0 0 56 56"><defs><filter id="a" x="0" y="0" width="56" height="56" filterUnits="userSpaceOnUse"><feOffset dy="1" input="SourceAlpha"/><feGaussianBlur stdDeviation="4" result="b"/><feFlood flood-opacity="0.161"/><feComposite operator="in" in2="b"/><feComposite in="SourceGraphic"/></filter></defs><g transform="translate(12 11)"><g transform="matrix(1, 0, 0, 1, -12, -11)" filter="url(#a)"><circle cx="16" cy="16" r="16" transform="translate(12 11)" fill="#fff"/></g><g transform="translate(414.33 -898.533)"><g transform="translate(-409.023 900.266)"><path d="M12.114,1.631A7.464,7.464,0,1,0,13.286,2.8C13.228,2.8,12.212,1.724,12.114,1.631ZM7.459,13.26a5.8,5.8,0,1,1,5.8-5.8A5.808,5.808,0,0,1,7.459,13.26Zm0,0" transform="translate(21.097 10.548) rotate(135)" fill="#f6dfdc"/><g transform="translate(6.38 17.619)"><path d="M0,0H8.31" transform="translate(4.155) rotate(90)" fill="none" stroke="#f6dfdc" stroke-linecap="round" stroke-width="1.7"/><path d="M-308.414,876.382h8.31" transform="translate(308.414 -872.227)" fill="none" stroke="#f6dfdc" stroke-linecap="round" stroke-width="1.7"/></g></g></g></g></svg>