<svg xmlns="http://www.w3.org/2000/svg" width="211.12" height="51.94" viewBox="0 0 211.12 51.94"><path fill="#47a7bf" d="M27.968 1.38H0l4.094 2.484v29.9H.414v.736h19.09v-.736h-5.29V17.756c2.668.276 6.3 2.806 7.82 5.336h.046V11.638h-.046c-1.518 2.576-5.152 5.106-7.82 5.382V2.12h.23c4.922 0 8.648 2.806 13.478 9.89h.046zm19.872 9.614c-2.116 0-5.106 2.162-7.728 5.612v-5.75L28.29 14.812l2.622 2.254v16.7h-2.3v.734h14.95v-.736h-3.45V17.112c1.61-.276 3.772.92 8.556 6.21h.046v-12.19a2.678 2.678 0 0 0-.874-.138zm24.748 19.32a6.245 6.245 0 0 1-1.334.138c-3.082 0-6.394-1.7-9.016-4.278 5.52-2.07 8.464-5.428 8.464-9.246 0-3.358-2.99-5.888-7.314-5.888-7.36 0-11.868 5.566-11.868 12.282 0 7.13 5.336 11.638 11.822 11.638 4.278 0 7.36-1.656 9.292-4.6zM59.11 12.65c1.978 0 4.646 3.4 4.646 7.406a8.942 8.942 0 0 1-1.794 5.844c-2.76-2.852-4.738-6.716-4.738-10.534 0-1.704.69-2.716 1.886-2.716zm35.742 17.664a6.245 6.245 0 0 1-1.334.138c-3.082 0-6.394-1.7-9.016-4.278 5.52-2.07 8.464-5.428 8.464-9.246 0-3.358-2.99-5.888-7.314-5.888-7.36 0-11.868 5.566-11.868 12.282 0 7.13 5.336 11.638 11.822 11.638 4.278 0 7.36-1.656 9.292-4.6zM81.374 12.65c1.978 0 4.646 3.4 4.646 7.406a8.942 8.942 0 0 1-1.794 5.844c-2.76-2.852-4.738-6.716-4.738-10.534 0-1.704.69-2.716 1.886-2.716zm40.066 21.114V0l-11.822 4.14 2.622 2.254v6.348a9.268 9.268 0 0 0-5.52-1.7c-6.3 0-10.672 5.382-10.672 13.018 0 7.084 3.5 10.9 8.188 10.9 2.714 0 5.566-1.61 8-4.094V34.5h11.5v-.736zm-11.132-3.082c-3.082 0-4.416-3.082-4.416-9.246 0-5.7 1.7-8.6 4.094-8.6a3.947 3.947 0 0 1 2.254.69v16.7a4.762 4.762 0 0 1-1.932.456zm28.106 4.278c8.74 0 13.018-5.382 13.018-12.1 0-7.222-5.474-11.822-13.064-11.822-7.5 0-12.65 5.244-12.65 11.822 0 7.408 6.072 12.1 12.696 12.1zm5.152-1.66c-3.772 0-11.73-13.846-11.73-18.354 0-1.426.69-2.254 1.84-2.254 4.048 0 11.776 14.4 11.776 18.262 0 1.568-.644 2.346-1.886 2.346zm50.738.46V17.94c0-4.692-1.794-7.13-5.7-7.13-2.622 0-5.106 1.426-8.97 4.554-.6-2.99-2.346-4.554-5.474-4.554-2.576 0-5.014 1.38-8.74 4.37v-4.6l-11.826 4.14 2.622 2.254v16.79h-2.3v.736h13.34v-.736h-1.84V15.732a6.292 6.292 0 0 1 2.714-.6c1.978 0 2.53 1.2 2.53 4.784v13.848h-1.84v.736h12.88v-.736h-1.84V17.94a14.857 14.857 0 0 0-.138-2.116 6.352 6.352 0 0 1 2.852-.69c1.978 0 2.53 1.2 2.53 4.784v13.846h-1.84v.736h13.34v-.736z"/><path fill="#ffc076" d="M141.81 48.5h.912V37.46h-.912v5.168a3.465 3.465 0 0 0-3.184-1.984 3.885 3.885 0 0 0-3.92 4 3.889 3.889 0 0 0 3.92 4.016 3.451 3.451 0 0 0 3.184-1.968zm0-3.856a3.054 3.054 0 0 1-3.076 3.12 3.054 3.054 0 0 1-3.072-3.12 3.05 3.05 0 0 1 3.072-3.104 3.05 3.05 0 0 1 3.076 3.104zm2.784 0a3.945 3.945 0 0 0 4 4.016 3.936 3.936 0 0 0 4-4.016 3.932 3.932 0 0 0-4-4 3.942 3.942 0 0 0-4 4zm.944 0a3.046 3.046 0 0 1 3.056-3.1 3.05 3.05 0 0 1 3.072 3.1 3.054 3.054 0 0 1-3.072 3.12 3.05 3.05 0 0 1-3.06-3.12zm15.36-3.844v1.76a3.411 3.411 0 0 0-3.136-1.92 3.8 3.8 0 0 0-3.808 3.9 3.776 3.776 0 0 0 3.808 3.896 3.426 3.426 0 0 0 3.136-1.872v1.616a2.829 2.829 0 0 1-2.944 2.9 4.86 4.86 0 0 1-2.768-.88v1.02a5.643 5.643 0 0 0 2.768.72 3.666 3.666 0 0 0 3.856-3.84v-7.3zm-.032 3.744a2.919 2.919 0 0 1-2.976 3.012 2.919 2.919 0 0 1-2.976-3.008 2.9 2.9 0 0 1 2.976-2.976 2.9 2.9 0 0 1 2.976 2.976zm8.176-3.744h-.908v7.7h.912v-4.656c.032-1.36.608-2.3 1.92-2.3a2.4 2.4 0 0 1 .832.16v-.976a3.238 3.238 0 0 0-.688-.08 2.139 2.139 0 0 0-2.064 1.312zm10.912 4.244a2.868 2.868 0 0 0 .048-.576 3.715 3.715 0 0 0-3.776-3.824 3.862 3.862 0 0 0-3.856 4 3.876 3.876 0 0 0 3.904 4.016 5.137 5.137 0 0 0 2.9-.912v-1.024a4.728 4.728 0 0 1-2.852 1.088 2.959 2.959 0 0 1-3.008-2.768zm-3.728-3.584a2.775 2.775 0 0 1 2.88 2.816h-5.808a2.917 2.917 0 0 1 2.928-2.816zm9.36-.368a3.685 3.685 0 0 0-1.792-.448c-1.632 0-2.464.9-2.464 2.016a1.985 1.985 0 0 0 1.136 1.776l1.536.944c.7.416.944.768.944 1.232 0 .72-.592 1.232-1.616 1.232a2.973 2.973 0 0 1-1.984-.768v1.072a4.27 4.27 0 0 0 1.988.512c1.52 0 2.56-.752 2.56-2.064a2.2 2.2 0 0 0-1.316-1.936l-1.488-.9c-.544-.336-.816-.608-.816-1.1 0-.688.544-1.184 1.5-1.184a2.875 2.875 0 0 1 1.808.656zm7.824 5.936a3.4 3.4 0 0 1-2.144.736 3.063 3.063 0 0 1-3.072-3.12 3.06 3.06 0 0 1 3.072-3.1 3.291 3.291 0 0 1 2.144.752v-1.06a4.094 4.094 0 0 0-2.144-.592 3.936 3.936 0 0 0-4.016 4 3.939 3.939 0 0 0 4.016 4.016 3.97 3.97 0 0 0 2.144-.624zm7.264 1.472h.912v-7.7h-.912v4.672a2.167 2.167 0 0 1-2.256 2.292 2.182 2.182 0 0 1-2.256-2.4V40.8h-.912v4.72a2.9 2.9 0 0 0 2.976 3.14 2.531 2.531 0 0 0 2.448-1.488zm10.4-3.456a2.868 2.868 0 0 0 .048-.576 3.715 3.715 0 0 0-3.776-3.824 3.862 3.862 0 0 0-3.856 4 3.876 3.876 0 0 0 3.904 4.016 5.137 5.137 0 0 0 2.9-.912v-1.024a4.728 4.728 0 0 1-2.852 1.088 2.959 2.959 0 0 1-3.008-2.768zm-3.728-3.584a2.775 2.775 0 0 1 2.88 2.816h-5.808a2.917 2.917 0 0 1 2.928-2.816z"/></svg>