<svg xmlns="http://www.w3.org/2000/svg" width="82" height="82" viewBox="0 0 82 82"><defs><filter id="a" width="82" height="82" x="0" y="0" filterUnits="userSpaceOnUse"><feOffset dy="1"/><feGaussianBlur result="b" stdDeviation="3"/><feFlood flood-opacity=".16"/><feComposite in2="b" operator="in"/><feComposite in="SourceGraphic"/></filter></defs><path fill="#fff" d="M25 0h14a25 25 0 0 1 25 25v14a25 25 0 0 1-25 25H25A25 25 0 0 1 0 39V25A25 25 0 0 1 25 0z" filter="url(#a)" transform="translate(9 8)"/><path fill="none" stroke="#47bf7a" stroke-linecap="round" stroke-linejoin="round" stroke-width="3" d="M32.909 42.632l5.059 4.949L48.253 32.5"/><path fill="none" stroke="#e4e4e4" stroke-linecap="round" stroke-linejoin="round" stroke-width="3" d="M25.116 61.977V34.193h-7.051L41.303 18.5m16.43 43.477V34.193h7.051L41.546 18.5"/></svg>